<svg xmlns="http://www.w3.org/2000/svg" width="24" height="24" viewBox="0 0 24 24" fill="none">
  <path fill-rule="evenodd" clip-rule="evenodd" d="M12.949 2.9305C14.0335 1.88309 15.4859 1.30352 16.9936 1.31662C18.5012 1.32972 19.9434 1.93445 21.0095 3.00054C22.0756 4.06664 22.6803 5.50881 22.6934 7.01644C22.7065 8.52407 22.1269 9.97654 21.0795 11.061L21.0705 11.0704L18.0705 14.0702C17.4876 14.6533 16.786 15.1043 16.0135 15.3924C15.241 15.6806 14.4155 15.7993 13.5931 15.7404C12.7707 15.6815 11.9706 15.4464 11.247 15.0511C10.5234 14.6558 9.89334 14.1094 9.39947 13.4492C9.15137 13.1175 9.21912 12.6475 9.55081 12.3994C9.8825 12.1513 10.3525 12.219 10.6006 12.5507C10.9657 13.0387 11.4314 13.4425 11.9662 13.7347C12.501 14.0269 13.0924 14.2007 13.7003 14.2442C14.3081 14.2877 14.9183 14.2 15.4893 13.987C16.0603 13.774 16.5788 13.4407 17.0096 13.0097L20.0049 10.0144C20.7764 9.21336 21.2031 8.14173 21.1934 7.02948C21.1838 5.91514 20.7368 4.84919 19.9488 4.0612C19.1608 3.27322 18.0949 2.82625 16.9805 2.81657C15.8679 2.8069 14.796 3.23393 13.9948 4.00581L12.2788 5.71184C11.9851 6.00388 11.5102 6.00249 11.2182 5.70875C10.9261 5.415 10.9275 4.94013 11.2213 4.64809L12.949 2.9305Z" fill="black"/>
  <path fill-rule="evenodd" clip-rule="evenodd" d="M7.98673 8.6075C8.75925 8.31933 9.58471 8.20066 10.4071 8.25956C11.2295 8.31846 12.0297 8.55355 12.7532 8.94887C13.4768 9.34419 14.1069 9.8905 14.6008 10.5507C14.8489 10.8824 14.7811 11.3524 14.4494 11.6006C14.1177 11.8487 13.6477 11.7809 13.3996 11.4492C13.0346 10.9612 12.5689 10.5574 12.0341 10.2652C11.4992 9.97302 10.9078 9.79927 10.3 9.75573C9.6921 9.7122 9.08198 9.7999 8.51098 10.0129C7.93999 10.2259 7.42148 10.5592 6.99063 10.9902L3.99532 13.9855C3.22389 14.7866 2.79714 15.8582 2.8068 16.9705C2.81648 18.0848 3.26345 19.1508 4.05144 19.9387C4.83942 20.7267 5.90537 21.1737 7.01971 21.1834C8.13196 21.193 9.20359 20.7663 10.0047 19.9949L11.7099 18.2897C12.0028 17.9968 12.4776 17.9968 12.7705 18.2896C13.0634 18.5825 13.0634 19.0574 12.7705 19.3503L11.0513 21.0695C9.96685 22.1169 8.51431 22.6964 7.00668 22.6833C5.49905 22.6702 4.05687 22.0655 2.99078 20.9994C1.92468 19.9333 1.31996 18.4911 1.30686 16.9835C1.29376 15.4759 1.87332 14.0234 2.92073 12.9389L2.92979 12.9296L5.92977 9.92975C5.92974 9.92978 5.92981 9.92971 5.92977 9.92975C6.51267 9.34666 7.21425 8.89566 7.98673 8.6075Z" fill="black"/>
</svg>