<svg xmlns="http://www.w3.org/2000/svg" width="24" height="24" viewBox="0 0 24 24" fill="none">
  <path fill-rule="evenodd" clip-rule="evenodd" d="M3.88308 15.8291C4.92542 14.8157 6.33476 14.25 7.8 14.25H16.2C17.6652 14.25 19.0746 14.8157 20.1169 15.8291C21.16 16.8432 21.75 18.2232 21.75 19.6667V22C21.75 22.4142 21.4142 22.75 21 22.75C20.5858 22.75 20.25 22.4142 20.25 22V19.6667C20.25 18.6348 19.8286 17.6408 19.0713 16.9046C18.3133 16.1676 17.2808 15.75 16.2 15.75H7.8C6.71916 15.75 5.6867 16.1676 4.9287 16.9046C4.17141 17.6408 3.75 18.6348 3.75 19.6667V22C3.75 22.4142 3.41421 22.75 3 22.75C2.58579 22.75 2.25 22.4142 2.25 22V19.6667C2.25 18.2232 2.84002 16.8432 3.88308 15.8291Z" fill="black"/>
  <path fill-rule="evenodd" clip-rule="evenodd" d="M12 2.75C9.65279 2.75 7.75 4.65279 7.75 7C7.75 9.34721 9.65279 11.25 12 11.25C14.3472 11.25 16.25 9.34721 16.25 7C16.25 4.65279 14.3472 2.75 12 2.75ZM6.25 7C6.25 3.82436 8.82436 1.25 12 1.25C15.1756 1.25 17.75 3.82436 17.75 7C17.75 10.1756 15.1756 12.75 12 12.75C8.82436 12.75 6.25 10.1756 6.25 7Z" fill="black"/>
</svg>