<svg width="176" height="180" viewBox="0 0 176 180" fill="none" xmlns="http://www.w3.org/2000/svg">
<path d="M150 99.4065H112.8L100.4 117.254H75.6L63.2 99.4065H26" stroke="#E4D5C9" stroke-width="4" stroke-linecap="round" stroke-linejoin="round"/>
<path d="M47.39 58.4168L26 99.4066V135.102C26 138.257 27.3064 141.284 29.6319 143.515C31.9573 145.746 35.1113 147 38.4 147H137.6C140.889 147 144.043 145.746 146.368 143.515C148.694 141.284 150 138.257 150 135.102V99.4066L128.61 58.4168C127.583 56.4345 126.001 54.7662 124.04 53.5996C122.08 52.4331 119.819 51.8144 117.512 51.8132H58.488C56.1811 51.8144 53.9202 52.4331 51.9597 53.5996C49.9991 54.7662 48.4166 56.4345 47.39 58.4168V58.4168Z" stroke="#E4D5C9" stroke-width="4" stroke-linecap="round" stroke-linejoin="round"/>
<path d="M88.001 25L88.001 35.0549" stroke="#E4D5C9" stroke-width="4" stroke-linecap="round"/>
<path d="M110.007 31.2854L102.597 38.3953" stroke="#E4D5C9" stroke-width="4" stroke-linecap="round"/>
<path d="M65.9946 31.2854L73.4043 38.3953" stroke="#E4D5C9" stroke-width="4" stroke-linecap="round"/>
</svg>
